<?xml version="1.0" encoding="UTF-8"?>
<svg width="542px" height="180px" viewBox="0 0 542 180" version="1.1" xmlns="http://www.w3.org/2000/svg" xmlns:xlink="http://www.w3.org/1999/xlink">
    <!-- Generator: Sketch 52.2 (67145) - http://www.bohemiancoding.com/sketch -->
    <title>Artboard 2 Copy 96</title>
    <desc>Created with Sketch.</desc>
    <g id="Artboard-2-Copy-96" stroke="none" stroke-width="1" fill="none" fill-rule="evenodd">
        <g id="Group-2" transform="translate(9.000000, 19.000000)"></g>
        <path d="M184,63 L233,63 C240.179702,63 246,68.8202983 246,76 L246,125 C246,132.179702 240.179702,138 233,138 L184,138 C176.820298,138 171,132.179702 171,125 L171,76 C171,68.8202983 176.820298,63 184,63 Z M202.0839,104.821126 L195.07576,97.8129861 C192.171802,94.9090278 187.463555,94.9090278 184.559597,97.8129861 C181.655639,100.716944 181.655639,105.425191 184.559597,108.32915 L196.601629,120.371181 C198.251506,122.021058 200.483792,122.733562 202.636699,122.508691 C204.315646,122.377272 205.957945,121.669472 207.242126,120.385291 L233.517887,94.1095299 C236.379052,91.2483648 236.379052,86.6094996 233.517887,83.7483345 C230.656722,80.8871694 226.017857,80.8871694 223.156692,83.7483345 L202.0839,104.821126 Z" id="Combined-Shape" fill="#DB2828"></path>
        <path d="M423.474118,97.05 L413.854118,97.05 L413.854118,80.93 L423.474118,80.93 L423.474118,61.17 C423.474118,53.5432952 425.662429,47.4116898 430.039118,42.775 C434.415807,38.1383101 440.590745,35.82 448.564118,35.82 C451.164131,35.82 453.937437,36.2099961 456.884118,36.99 C459.830799,37.7700039 462.38744,38.9399922 464.554118,40.5 L456.884118,53.63 C455.32411,51.7233238 453.200798,50.77 450.514118,50.77 C447.827438,50.77 445.682459,51.6799909 444.079118,53.5 C442.475777,55.3200091 441.674118,58.0499818 441.674118,61.69 L441.674118,80.93 L458.834118,80.93 L458.834118,97.05 L441.674118,97.05 L441.674118,138 L423.474118,138 L423.474118,97.05 Z M530.188824,81.19 L493.528824,165.3 L475.978824,165.3 L489.628824,135.01 L463.368824,81.19 L483.778824,81.19 L498.728824,114.73 L513.808824,81.19 L530.188824,81.19 Z" id="utify" fill="#2185D0"></path>
        <path d="M359.89,56.23 L359.89,80.93 L373.67,80.93 L373.67,95.1 L359.89,95.1 L359.89,138 L341.69,138 L341.69,95.1 L332.85,95.1 L332.85,80.93 L341.69,80.93 L341.69,56.23 L359.89,56.23 Z M402.644706,81.19 L402.644706,138 L384.444706,138 L384.444706,81.19 L402.644706,81.19 Z M384.054706,61.04 C384.054706,58.439987 385.073029,56.2516755 387.109706,54.475 C389.146383,52.6983245 391.464693,51.81 394.064706,51.81 C396.578052,51.81 398.831363,52.6983245 400.824706,54.475 C402.818049,56.2516755 403.814706,58.439987 403.814706,61.04 C403.814706,63.640013 402.818049,65.806658 400.824706,67.54 C398.831363,69.273342 396.578052,70.14 394.064706,70.14 C391.464693,70.14 389.146383,69.273342 387.109706,67.54 C385.073029,65.806658 384.054706,63.640013 384.054706,61.04 Z" id="ti" fill="#21BA45"></path>
        <path d="M320.56,81.19 L320.56,138 L304.05,138 L302.75,128.9 C300.756657,132.540018 297.961685,135.421656 294.365,137.545 C290.768315,139.668344 286.543358,140.73 281.69,140.73 C276.489974,140.73 272.156684,139.126683 268.69,135.92 C265.223316,132.713317 263.446667,128.640025 263.36,123.7 L263.36,81.19 L281.56,81.19 L281.56,116.94 C281.820001,122.486694 284.376642,125.26 289.23,125.26 C293.216687,125.26 296.401655,123.31002 298.785,119.41 C301.168345,115.50998 302.36,110.483364 302.36,104.33 L302.36,81.19 L320.56,81.19 Z" id="u" fill="#FBBD08"></path>
        <g id="Group" transform="translate(9.000000, 19.000000)">
            <path d="M63.6233327,20.9396829 C70.2677739,8.48013125 83.3935665,2.77500681e-15 98.5,0 C120.315248,-4.00739598e-15 138,17.6847524 138,39.5 C138,61.3152476 120.315248,79 98.5,79 L95,79 C89.4771525,79 85,74.5228475 85,69 C85,63.4771525 89.4771525,59 95,59 L83.6702998,59 L83.6702998,59 L98.5,59 C109.269553,59 118,50.2695526 118,39.5 C118,28.7304474 109.269553,20 98.5,20 C88.1701891,20 79.716362,28.0320409 79.0432119,38.1914293 L63.6233327,20.9396829 Z M75.7658502,113.179069 C69.6983148,127.194274 55.7442824,137 39.5,137 C17.6847524,137 0,119.315248 0,97.5 C0,75.6847524 17.6847524,58 39.5,58 L43,58 C48.5228475,58 53,62.4771525 53,68 C53,73.5228475 48.5228475,78 43,78 L54.6211108,78 L54.6211108,78 L39.5,78 C28.7304474,78 20,86.7304474 20,97.5 C20,108.269553 28.7304474,117 39.5,117 C50.2695526,117 59,108.269553 59,97.5 L59,94.4214517 L75.7658502,113.179069 Z" id="Combined-Shape" fill="#21BA45"></path>
            <path d="M63.6233327,20.9396829 L79.0432119,38.1914293 C79.0145558,38.6239162 79,39.0602582 79,39.5 L79,59 L83.6702998,59 L83.6702998,59 L79,59 L79,79 L79,97.5 C79,103.070965 77.8467072,108.372564 75.7658502,113.179069 L59,94.4214517 L59,78 L54.6211108,78 L54.6211108,78 L59,78 L59,58 L59,39.5 C59,32.7911858 60.6725157,26.4730087 63.6233327,20.9396829 Z" id="Combined-Shape" fill="#FBBD08"></path>
            <path d="M83.6702998,59 L83.6702998,59 L98.5,59 C109.269553,59 118,50.2695526 118,39.5 C118,28.7304474 109.269553,20 98.5,20 C88.1701891,20 79.716362,28.0320409 79.0432119,38.1914293 L63.6233327,20.9396829 C70.2677739,8.48013125 83.3935665,2.77500681e-15 98.5,0 C120.315248,-4.00739598e-15 138,17.6847524 138,39.5 C138,61.3152476 120.315248,79 98.5,79 L95,79 C89.4771525,79 85,74.5228475 85,69 C85,63.4771525 89.4771525,59 95,59 L83.6702998,59 Z" id="Combined-Shape" fill="#DB2828"></path>
            <rect id="Rectangle" fill="#2185D0" transform="translate(112.932426, 88.856795) rotate(48.000000) translate(-112.932426, -88.856795) " x="75.9324255" y="77.8567952" width="74" height="22" rx="11"></rect>
        </g>
    </g>
</svg>